<svg width="213" height="211" viewBox="0 0 213 211" fill="none" xmlns="http://www.w3.org/2000/svg">
<path d="M90.4566 65.1041C75.283 51.2851 47.3556 11.431 27.8372 39.473C8.30536 67.515 63.6922 93.5366 63.6922 93.5366C63.6922 93.5366 5.0032 67.946 2.78398 95.3818C0.564755 122.818 65.6842 114.198 65.6842 114.198C65.6842 114.198 5.6717 127.801 15.0432 149.19C24.4148 170.578 76.7803 135.923 76.7803 135.923C76.7803 135.923 21.1127 171.009 42.6899 186.821C64.2805 202.62 92.1545 146.9 92.1545 146.9C92.1545 146.9 61.2458 205.287 94.0662 207.725C126.9 210.163 114.36 154.133 114.36 154.133C114.36 154.133 122.488 210.742 143.384 202.876C164.279 195.01 138.638 150.914 138.638 150.914C138.638 150.914 168.838 195.549 185.602 172.396C202.367 149.243 153.811 128.542 153.811 128.542C153.811 128.542 206.164 148.179 209.412 124.569C212.661 100.958 166.579 100.271 166.579 100.271C166.579 100.271 216.03 96.5402 207.42 76.7545C198.811 56.9689 164.172 76.2697 164.172 76.2697C164.172 76.2697 196.805 45.3589 181.151 32.1729C165.496 18.9735 142.582 60.4708 142.582 60.4708C142.582 60.4708 159.627 12.4008 140.523 7.57897C121.419 2.75715 114.44 50.6251 114.44 50.6251C114.44 50.6251 119.895 -0.434943 97.3416 3.12081C74.7884 6.67656 90.4566 65.1041 90.4566 65.1041Z" fill="#4377BB" stroke="#010202" stroke-width="5" stroke-miterlimit="10"/>
</svg>
