<svg width="292" height="257" viewBox="0 0 292 257" fill="none" xmlns="http://www.w3.org/2000/svg">
<path d="M201.8 106.111L196.874 110.836L203.686 111.27L274.065 115.755L193.518 139.43L189.596 140.583L191.872 143.979L226.086 195.025L164.126 168.619L161.062 167.313L160.082 170.497L137.537 243.78L127.294 181.398L126.409 176.01L122.336 179.647L57.6822 237.375L99.1344 170.491L103.029 164.206L95.8566 166L19.5197 185.092L94.2084 141.112L98.9143 138.341L94.0515 135.856L37.7614 107.085L114.429 107.951L117.76 107.988L117.45 104.672L111.187 37.612L149.375 85.7573L151.915 88.9601L154.209 85.5761L201.31 16.0784L184.128 84.4754L182.465 91.0957L188.466 87.8441L262.874 47.5328L201.8 106.111Z" fill="#FFB13D" stroke="black" stroke-width="5"/>
</svg>
