<svg width="251" height="270" viewBox="0 0 251 270" fill="none" xmlns="http://www.w3.org/2000/svg">
<path d="M141.871 88.3484L142.619 92.0031L145.715 89.9211L206.938 48.7461L167.905 114.537L166.189 117.429L169.453 118.239L240.359 135.84L169.286 152.754L166.015 153.532L167.702 156.441L206.097 222.606L145.275 180.841L142.2 178.729L141.416 182.376L125.205 257.796L109.724 182.223L108.975 178.568L105.879 180.65L44.6563 221.825L83.6893 156.034L85.405 153.142L82.1415 152.332L11.2349 134.732L82.3084 117.818L85.5796 117.039L83.8919 114.131L45.497 47.9654L106.319 89.7306L109.394 91.8424L110.178 88.1951L126.39 12.7754L141.871 88.3484Z" fill="#7EC7D4" stroke="black" stroke-width="5"/>
</svg>
