<svg width="250" height="112" viewBox="0 0 250 112" fill="none" xmlns="http://www.w3.org/2000/svg">
<rect x="2.5" y="2.5" width="245" height="107" rx="53.5" fill="white" stroke="black" stroke-width="5"/>
<path d="M119.922 70.8586V40.953C119.922 38.2003 117.69 35.9688 114.937 35.9688C112.185 35.9688 109.953 38.2003 109.953 40.953V70.8586C109.953 73.6114 112.185 75.8429 114.937 75.8429C117.69 75.8429 119.922 73.6114 119.922 70.8586Z" fill="black"/>
<path d="M139.859 70.8586V40.953C139.859 38.2003 137.628 35.9688 134.875 35.9688C132.122 35.9688 129.891 38.2003 129.891 40.953V70.8586C129.891 73.6114 132.122 75.8429 134.875 75.8429C137.628 75.8429 139.859 73.6114 139.859 70.8586Z" fill="black"/>
</svg>
