<svg width="190" height="95" viewBox="0 0 190 95" fill="none" xmlns="http://www.w3.org/2000/svg">
<rect x="2.5" y="2.5" width="185" height="90" rx="12.5" fill="white" stroke="black" stroke-width="5"/>
<path d="M43.0979 22.8541C43.6966 21.0115 46.3034 21.0115 46.9021 22.8541L51.5109 37.0385C51.7787 37.8626 52.5466 38.4205 53.413 38.4205H68.3274C70.2648 38.4205 71.0704 40.8997 69.503 42.0385L57.437 50.805C56.736 51.3142 56.4427 52.217 56.7104 53.041L61.3192 67.2254C61.9179 69.0681 59.809 70.6003 58.2415 69.4615L46.1756 60.695C45.4746 60.1858 44.5254 60.1858 43.8244 60.695L31.7585 69.4615C30.191 70.6003 28.0821 69.068 28.6808 67.2254L33.2896 53.041C33.5573 52.217 33.264 51.3142 32.563 50.805L20.497 42.0385C18.9296 40.8997 19.7352 38.4205 21.6726 38.4205H36.587C37.4534 38.4205 38.2213 37.8626 38.4891 37.0385L43.0979 22.8541Z" fill="black"/>
</svg>
