<svg width="221" height="105" viewBox="0 0 221 105" fill="none" xmlns="http://www.w3.org/2000/svg">
<rect x="2.5" y="2.5" width="216" height="100" rx="12.5" fill="white" stroke="black" stroke-width="5"/>
<path d="M49.5979 21.8541C50.1966 20.0115 52.8034 20.0115 53.4021 21.8541L59.2457 39.8389C59.5135 40.663 60.2814 41.2209 61.1479 41.2209H80.0582C81.9956 41.2209 82.8012 43.7001 81.2338 44.8389L65.935 55.9541C65.234 56.4634 64.9407 57.3662 65.2084 58.1902L71.052 76.175C71.6508 78.0176 69.5418 79.5499 67.9744 78.4111L52.6756 67.2959C51.9746 66.7866 51.0254 66.7866 50.3244 67.2959L35.0256 78.4111C33.4582 79.5499 31.3492 78.0176 31.948 76.175L37.7916 58.1902C38.0593 57.3662 37.766 56.4634 37.065 55.9541L21.7662 44.8389C20.1988 43.7001 21.0044 41.2209 22.9418 41.2209H41.8522C42.7186 41.2209 43.4865 40.663 43.7543 39.8389L49.5979 21.8541Z" fill="black"/>
</svg>
