<svg width="89" height="146" viewBox="0 0 89 146" fill="none" xmlns="http://www.w3.org/2000/svg">
<path id="Ellipse 19" d="M74.1499 59.5722C82.9266 79.1298 87.4465 98.3213 87.6921 113.516C87.8149 121.115 86.8677 127.665 84.8891 132.747C82.9127 137.825 79.9366 141.373 76.0245 143.129C72.1124 144.885 67.4829 144.749 62.3761 142.85C57.2635 140.95 51.7409 137.304 46.1454 132.161C34.9571 121.877 23.6243 105.742 14.8475 86.1849C6.07082 66.6273 1.55087 47.4358 1.30532 32.2412C1.18251 24.642 2.12968 18.0925 4.10832 13.0096C6.08474 7.93242 9.06082 4.38371 12.9729 2.6281C16.885 0.87249 21.5145 1.00812 26.6214 2.90661C31.734 4.80724 37.2565 8.45333 42.852 13.5966C54.0403 23.8805 65.3731 40.0146 74.1499 59.5722Z" fill="#E1A1FF" stroke="black" stroke-width="2"/>
</svg>
