<svg width="155" height="314" viewBox="0 0 155 314" fill="none" xmlns="http://www.w3.org/2000/svg">
<path id="Ellipse 23" d="M143.253 2.72123C148.2 4.82088 151.487 10.8894 152.872 20.7052C154.246 30.4493 153.69 43.5412 151.304 59.0933C146.534 90.182 134.485 130.872 116.274 173.777C98.0632 216.682 77.1636 253.615 58.1149 278.644C48.5859 291.164 39.5548 300.659 31.5908 306.439C23.5681 312.262 16.9194 314.113 11.9727 312.013C7.02601 309.914 3.73896 303.845 2.35413 294.029C0.979413 284.285 1.53533 271.193 3.92172 255.641C8.69211 224.552 20.7402 183.862 38.9513 140.957C57.1625 98.0522 78.0621 61.119 97.1107 36.0908C106.64 23.5704 115.671 14.0758 123.635 8.29559C131.658 2.47286 138.306 0.621579 143.253 2.72123Z" fill="#FFDF00" stroke="black" stroke-width="2"/>
</svg>
