<svg width="144" height="127" viewBox="0 0 144 127" fill="none" xmlns="http://www.w3.org/2000/svg">
<path id="Star 8" d="M99.8422 52.7731L98.2002 54.3481L100.471 54.4927L137.602 56.8586L95.5923 69.2067L94.285 69.591L95.0436 70.7229L112.684 97.0422L80.8775 83.4869L79.8561 83.0516L79.5297 84.1128L67.8973 121.924L62.5553 89.3913L62.2603 87.595L60.9025 88.8074L26.8071 119.251L48.8249 83.7245L50.1232 81.6296L47.7323 82.2276L7.18508 92.3685L46.5727 69.1754L48.1413 68.2517L46.5204 67.4232L17.1643 52.419L56.7218 52.8657L57.832 52.8782L57.7288 51.7727L54.5138 17.3476L74.2034 42.1714L75.0502 43.239L75.8146 42.111L100.381 5.86417L91.3155 41.9497L90.7611 44.1565L92.7617 43.0726L132.274 21.6661L99.8422 52.7731Z" fill="#FFB13D" stroke="black" stroke-width="2"/>
</svg>
