<svg width="105" height="113" viewBox="0 0 105 113" fill="none" xmlns="http://www.w3.org/2000/svg">
<path id="Star 9" d="M59.1954 36.7671L59.5019 38.2275L60.7361 37.3888L86.5147 19.87L70.1643 47.7352L69.4836 48.8953L70.7905 49.213L100.767 56.5L70.7905 63.787L69.4836 64.1047L70.1643 65.2648L86.5147 93.1301L60.7361 75.6112L59.5019 74.7725L59.1954 76.2329L52.5 108.132L45.8046 76.2329L45.4981 74.7725L44.2639 75.6112L18.4853 93.1301L34.8357 65.2648L35.5164 64.1047L34.2095 63.787L4.23343 56.5L34.2095 49.213L35.5164 48.8953L34.8357 47.7352L18.4853 19.8699L44.2639 37.3888L45.4981 38.2275L45.8046 36.7671L52.5 4.86816L59.1954 36.7671Z" fill="#3060DF" stroke="black" stroke-width="2"/>
</svg>
