<svg width="41" height="41" viewBox="0 0 41 41" fill="none" xmlns="http://www.w3.org/2000/svg">
<path fill-rule="evenodd" clip-rule="evenodd" d="M37.5834 20.5C37.5834 29.9348 29.9349 37.5833 20.5001 37.5833C11.0652 37.5833 3.41675 29.9348 3.41675 20.5C3.41675 11.0651 11.0652 3.41663 20.5001 3.41663C29.9349 3.41663 37.5834 11.0651 37.5834 20.5ZM21.2072 12.9595C21.5977 13.35 21.5977 13.9832 21.2072 14.3737L16.0809 19.5H27.3334C27.8857 19.5 28.3334 19.9477 28.3334 20.5C28.3334 21.0523 27.8857 21.5 27.3334 21.5H16.081L21.2072 26.6262C21.5977 27.0167 21.5977 27.6499 21.2072 28.0404C20.8167 28.4309 20.1835 28.4309 19.793 28.0404L12.965 21.2124C12.9463 21.194 12.9283 21.1748 12.911 21.1549C12.8438 21.0775 12.7905 20.9923 12.751 20.9024C12.6968 20.7793 12.6667 20.6431 12.6667 20.5L12.6668 20.494C12.6675 20.367 12.6919 20.2457 12.7358 20.1341C12.7846 20.0098 12.8592 19.8933 12.9596 19.7929L19.793 12.9595C20.1835 12.569 20.8167 12.569 21.2072 12.9595Z" fill="black"/>
</svg>
