<svg width="211" height="214" viewBox="0 0 211 214" fill="none" xmlns="http://www.w3.org/2000/svg">
<path d="M65.4717 156.985C65.4717 156.985 19.6137 184.514 6.34004 150.996C-10.8685 107.53 53.3974 105.498 53.3974 105.498C53.3974 105.498 -9.34573 81.5524 22.0259 50.4273C53.3974 19.3023 87.1811 69.5864 87.1811 69.5864C87.1811 69.5864 55.8096 2.5498 107.691 2.5498C159.573 2.5498 133.026 62.4067 133.026 62.4067C133.026 62.4067 174.046 16.9091 193.357 52.8339C215.47 93.973 155.948 101.915 155.948 101.915C155.948 101.915 213.867 105.511 207.83 136.636C200.095 176.532 152.323 153.402 152.323 153.402C152.323 153.402 190.931 191.707 152.323 208.473C113.715 225.239 110.09 164.178 110.09 164.178C110.09 164.178 96.8163 216.856 70.2691 208.473C43.7622 200.09 65.4717 156.985 65.4717 156.985Z" fill="#AF5EA1" stroke="#010202" stroke-width="5" stroke-miterlimit="10"/>
</svg>
