<svg width="287" height="64" viewBox="0 0 287 64" fill="none" xmlns="http://www.w3.org/2000/svg">
<path d="M2.68164 32C2.68164 15.7076 15.8892 2.5 32.1816 2.5H254.182C270.474 2.5 283.682 15.7076 283.682 32C283.682 48.2924 270.474 61.5 254.182 61.5H32.1816C15.8892 61.5 2.68164 48.2924 2.68164 32Z" fill="#F7F7F7" stroke="black" stroke-width="5"/>
<path d="M97.8442 47.5695C95.3569 47.5695 93.3082 47.0327 91.698 45.9593C90.1009 44.8858 89.1191 43.3935 88.7525 41.4822L91.698 40.9913C92.0122 42.1956 92.7256 43.1578 93.8384 43.8778C94.9642 44.5847 96.3518 44.9382 98.0013 44.9382C99.6115 44.9382 100.881 44.6044 101.811 43.9367C102.74 43.256 103.205 42.3331 103.205 41.168C103.205 40.5135 103.054 39.9833 102.753 39.5775C102.465 39.1585 101.87 38.7724 100.966 38.4189C100.063 38.0655 98.7147 37.6465 96.9213 37.1622C94.9969 36.6385 93.4915 36.1149 92.4049 35.5913C91.3184 35.0676 90.546 34.4655 90.0878 33.7847C89.6296 33.0909 89.4005 32.2465 89.4005 31.2516C89.4005 30.0473 89.7409 28.9935 90.4216 28.0902C91.1024 27.1738 92.0449 26.4669 93.2493 25.9695C94.4536 25.4589 95.8544 25.2036 97.4515 25.2036C99.0486 25.2036 100.475 25.4655 101.732 25.9891C103.002 26.4996 104.023 27.2196 104.795 28.1491C105.568 29.0785 106.026 30.1585 106.17 31.3891L103.225 31.9193C103.028 30.6756 102.406 29.6938 101.359 28.9738C100.325 28.2407 99.0093 27.8611 97.4122 27.8349C95.9067 27.7956 94.6827 28.0836 93.7402 28.6989C92.7976 29.3011 92.3264 30.1062 92.3264 31.1142C92.3264 31.6771 92.4966 32.1615 92.8369 32.5673C93.1773 32.96 93.7926 33.3331 94.6827 33.6865C95.586 34.04 96.8689 34.4262 98.5315 34.8451C100.482 35.3425 102.014 35.8662 103.126 36.416C104.239 36.9658 105.031 37.6138 105.502 38.36C105.974 39.1062 106.209 40.0291 106.209 41.1287C106.209 43.1316 105.463 44.7091 103.971 45.8611C102.491 47 100.449 47.5695 97.8442 47.5695ZM119.133 47.5891C117.065 47.5891 115.271 47.1309 113.753 46.2145C112.247 45.2982 111.076 44.0087 110.238 42.3462C109.4 40.6836 108.981 38.7331 108.981 36.4945C108.981 34.1775 109.393 32.1745 110.218 30.4858C111.043 28.7971 112.201 27.4945 113.694 26.5782C115.199 25.6618 116.973 25.2036 119.015 25.2036C121.11 25.2036 122.897 25.688 124.376 26.6567C125.855 27.6124 126.975 28.9869 127.734 30.7804C128.493 32.5738 128.84 34.7142 128.775 37.2015H125.829V36.1804C125.777 33.4313 125.181 31.3564 124.042 29.9556C122.916 28.5549 121.267 27.8545 119.094 27.8545C116.816 27.8545 115.068 28.5942 113.851 30.0735C112.647 31.5527 112.044 33.6604 112.044 36.3964C112.044 39.0669 112.647 41.1418 113.851 42.6211C115.068 44.0873 116.79 44.8204 119.015 44.8204C120.534 44.8204 121.856 44.4735 122.982 43.7796C124.121 43.0727 125.017 42.0582 125.672 40.736L128.362 41.7767C127.524 43.6225 126.287 45.056 124.651 46.0771C123.028 47.0851 121.188 47.5891 119.133 47.5891ZM111.023 37.2015V34.7862H127.223V37.2015H111.023ZM133.12 47V18.1345H136.007V47H133.12ZM150.462 47.5891C148.394 47.5891 146.6 47.1309 145.082 46.2145C143.576 45.2982 142.405 44.0087 141.567 42.3462C140.729 40.6836 140.31 38.7331 140.31 36.4945C140.31 34.1775 140.723 32.1745 141.547 30.4858C142.372 28.7971 143.531 27.4945 145.023 26.5782C146.528 25.6618 148.302 25.2036 150.344 25.2036C152.439 25.2036 154.226 25.688 155.705 26.6567C157.184 27.6124 158.304 28.9869 159.063 30.7804C159.822 32.5738 160.169 34.7142 160.104 37.2015H157.158V36.1804C157.106 33.4313 156.51 31.3564 155.371 29.9556C154.246 28.5549 152.596 27.8545 150.423 27.8545C148.145 27.8545 146.398 28.5942 145.18 30.0735C143.976 31.5527 143.374 33.6604 143.374 36.3964C143.374 39.0669 143.976 41.1418 145.18 42.6211C146.398 44.0873 148.119 44.8204 150.344 44.8204C151.863 44.8204 153.185 44.4735 154.311 43.7796C155.45 43.0727 156.347 42.0582 157.001 40.736L159.691 41.7767C158.854 43.6225 157.616 45.056 155.98 46.0771C154.357 47.0851 152.518 47.5891 150.462 47.5891ZM142.352 37.2015V34.7862H158.552V37.2015H142.352ZM172.854 47.5891C170.72 47.5891 168.913 47.1113 167.434 46.1556C165.955 45.2 164.829 43.8844 164.056 42.2087C163.297 40.52 162.904 38.5825 162.878 36.3964C162.904 34.1709 163.31 32.2204 164.096 30.5447C164.881 28.856 166.014 27.5469 167.493 26.6175C168.972 25.6749 170.766 25.2036 172.873 25.2036C175.02 25.2036 176.886 25.7273 178.47 26.7745C180.067 27.8218 181.16 29.2553 181.749 31.0749L178.921 31.9782C178.424 30.7084 177.632 29.7265 176.545 29.0327C175.472 28.3258 174.241 27.9724 172.854 27.9724C171.296 27.9724 170.006 28.3324 168.985 29.0524C167.964 29.7593 167.205 30.7476 166.707 32.0175C166.21 33.2873 165.955 34.7469 165.942 36.3964C165.968 38.936 166.557 40.9782 167.709 42.5229C168.861 44.0545 170.576 44.8204 172.854 44.8204C174.294 44.8204 175.518 44.4931 176.526 43.8385C177.547 43.1709 178.319 42.2022 178.843 40.9324L181.749 41.7964C180.963 43.6815 179.811 45.1215 178.293 46.1164C176.774 47.0982 174.961 47.5891 172.854 47.5891ZM196.943 47C195.752 47.2487 194.574 47.3469 193.409 47.2945C192.257 47.2422 191.223 46.9935 190.306 46.5484C189.403 46.1033 188.716 45.4095 188.244 44.4669C187.865 43.6815 187.655 42.8895 187.616 42.0909C187.59 41.2793 187.577 40.3564 187.577 39.3222V19.9018H190.444V39.2044C190.444 40.0945 190.45 40.8407 190.463 41.4429C190.49 42.032 190.627 42.5556 190.876 43.0138C191.347 43.8909 192.093 44.4145 193.114 44.5847C194.148 44.7549 195.425 44.7156 196.943 44.4669V47ZM183.041 28.2669V25.7927H196.943V28.2669H183.041Z" fill="black"/>
</svg>
