<svg width="182" height="297" viewBox="0 0 182 297" fill="none" xmlns="http://www.w3.org/2000/svg">
<path d="M150.634 121.558C168.51 161.392 177.696 200.439 178.194 231.298C178.444 246.734 176.517 259.97 172.538 270.193C168.564 280.4 162.634 287.408 154.943 290.859C147.252 294.31 138.074 294.083 127.808 290.266C117.525 286.444 106.356 279.084 94.9902 268.637C72.2678 247.751 49.2025 214.933 31.3263 175.098C13.4502 135.264 4.26454 96.2165 3.76584 65.3575C3.51639 49.9223 5.44283 36.6859 9.42256 26.4624C13.3956 16.256 19.3266 9.24837 27.0175 5.79699C34.7083 2.34561 43.8861 2.57306 54.1521 6.38949C64.4353 10.2123 75.6045 17.5719 86.9699 28.0187C109.692 48.9044 132.758 81.7233 150.634 121.558Z" fill="#E1A1FF" stroke="black" stroke-width="5"/>
</svg>
