<svg width="315" height="640" viewBox="0 0 315 640" fill="none" xmlns="http://www.w3.org/2000/svg">
<path d="M290.976 5.11269C300.577 9.18785 307.218 21.1018 310.036 41.0757C312.824 60.8345 311.703 87.455 306.838 119.16C297.115 182.523 272.549 265.508 235.395 353.04C198.242 440.573 155.615 515.892 116.791 566.903C97.3651 592.427 78.9953 611.727 62.846 623.448C46.5209 635.296 33.3374 638.795 23.7364 634.72C14.1355 630.645 7.4942 618.731 4.67625 598.757C1.88864 578.998 3.00959 552.378 7.87454 520.673C17.5973 457.31 42.1635 374.325 79.3171 286.792C116.471 199.26 159.097 123.941 197.921 72.9297C217.347 47.4054 235.717 28.1063 251.866 16.3853C268.191 4.53676 281.375 1.03753 290.976 5.11269Z" fill="#FFDF00" stroke="black" stroke-width="5"/>
</svg>
