<svg width="57" height="56" viewBox="0 0 57 56" fill="none" xmlns="http://www.w3.org/2000/svg">
<path d="M27.5489 3.92705C27.8483 3.00574 29.1517 3.00574 29.4511 3.92705L34.8986 20.693C35.0325 21.105 35.4165 21.384 35.8497 21.384H53.4785C54.4472 21.384 54.85 22.6236 54.0663 23.193L39.8043 33.555C39.4538 33.8096 39.3071 34.261 39.441 34.673L44.8886 51.4389C45.188 52.3603 44.1335 53.1264 43.3498 52.557L29.0878 42.195C28.7373 41.9404 28.2627 41.9404 27.9122 42.195L13.6502 52.557C12.8665 53.1264 11.812 52.3603 12.1114 51.439L17.559 34.673C17.6929 34.261 17.5462 33.8096 17.1957 33.555L2.93373 23.193C2.15002 22.6236 2.55279 21.384 3.52152 21.384H21.1503C21.5835 21.384 21.9675 21.105 22.1014 20.693L27.5489 3.92705Z" stroke="black" stroke-width="5"/>
</svg>
