<svg width="60" height="65" viewBox="0 0 60 65" fill="none" xmlns="http://www.w3.org/2000/svg">
<rect x="20.332" y="21.8838" width="20.6382" height="20.6382" rx="10.3191" stroke="black" stroke-width="5" stroke-linejoin="round"/>
<path fill-rule="evenodd" clip-rule="evenodd" d="M56.4107 19.116L54.5013 15.8027C52.886 12.9991 49.3062 12.0319 46.4988 13.6406V13.6406C45.1624 14.4278 43.5678 14.6512 42.0665 14.2614C40.5653 13.8716 39.2808 12.9007 38.4962 11.5627C37.9915 10.7123 37.7202 9.74367 37.71 8.7548V8.7548C37.7555 7.16938 37.1574 5.63304 36.0518 4.49576C34.9463 3.35849 33.4275 2.71712 31.8414 2.71777H27.9946C26.4407 2.71776 24.9509 3.33694 23.8548 4.43832C22.7587 5.53971 22.1466 7.03248 22.1541 8.58633V8.58633C22.108 11.7945 19.494 14.371 16.2855 14.3706C15.2967 14.3604 14.328 14.0892 13.4776 13.5844V13.5844C10.6702 11.9758 7.0904 12.9429 5.47506 15.7465L3.42528 19.116C1.81189 21.9161 2.76589 25.4936 5.55929 27.1186V27.1186C7.37505 28.1669 8.4936 30.1043 8.4936 32.2009C8.4936 34.2976 7.37505 36.235 5.55929 37.2833V37.2833C2.76944 38.8972 1.81439 42.4661 3.42528 45.2578V45.2578L5.36274 48.5992C6.11959 49.9648 7.38947 50.9726 8.89136 51.3995C10.3933 51.8263 12.0033 51.6371 13.3653 50.8736V50.8736C14.7042 50.0923 16.2997 49.8783 17.7972 50.279C19.2947 50.6798 20.57 51.6621 21.3398 53.0076C21.8445 53.858 22.1158 54.8267 22.126 55.8155V55.8155C22.126 59.0566 24.7535 61.6841 27.9946 61.6841H31.8414C35.0716 61.6841 37.6945 59.0738 37.71 55.8436V55.8436C37.7025 54.2849 38.3183 52.7878 39.4205 51.6856C40.5227 50.5834 42.0198 49.9675 43.5785 49.9751C44.565 50.0015 45.5297 50.2716 46.3864 50.7613V50.7613C49.1865 52.3747 52.7641 51.4207 54.389 48.6273V48.6273L56.4107 45.2578C57.1933 43.9146 57.408 42.3148 57.0075 40.8128C56.607 39.3108 55.6241 38.0304 54.2767 37.2552V37.2552C52.9293 36.48 51.9464 35.1996 51.5459 33.6976C51.1454 32.1955 51.3601 30.5958 52.1427 29.2526C52.6516 28.3641 53.3882 27.6275 54.2767 27.1186V27.1186C57.0534 25.4945 58.0051 21.9379 56.4107 19.1441V19.1441V19.116Z" stroke="black" stroke-width="5" stroke-linecap="round" stroke-linejoin="round"/>
</svg>
