<svg width="17" height="16" viewBox="0 0 17 16" fill="none" xmlns="http://www.w3.org/2000/svg">
<path d="M16.9159 5.23556L16.0231 1.35111C15.836 0.551111 15.1728 0 14.3991 0H2.58877C1.82353 0 1.15181 0.56 0.973253 1.35111L0.0804661 5.23556C-0.1236 6.14222 0.0634607 7.06667 0.607636 7.79556C0.675658 7.89333 0.769188 7.96444 0.845712 8.05333V14.2222C0.845712 15.2 1.61096 16 2.54626 16H14.4501C15.3854 16 16.1506 15.2 16.1506 14.2222V8.05333C16.2272 7.97333 16.3207 7.89333 16.3887 7.80444C16.9329 7.07556 17.1285 6.14222 16.9159 5.23556ZM14.3736 1.76889L15.2664 5.65333C15.3514 6.02667 15.2749 6.4 15.0538 6.69333C14.9347 6.85333 14.6797 7.11111 14.2545 7.11111C13.7359 7.11111 13.2852 6.67556 13.2257 6.09778L12.7325 1.77778L14.3736 1.76889ZM9.34845 1.77778H11.015L11.4741 5.79556C11.5166 6.14222 11.4146 6.48889 11.1935 6.74667C11.0065 6.97778 10.7344 7.11111 10.3858 7.11111C9.8161 7.11111 9.34845 6.58667 9.34845 5.94667V1.77778ZM5.51371 5.79556L5.98136 1.77778H7.6479V5.94667C7.6479 6.58667 7.18025 7.11111 6.55105 7.11111C6.26196 7.11111 5.99837 6.97778 5.7943 6.74667C5.68831 6.61629 5.60878 6.46475 5.56055 6.30125C5.51231 6.13774 5.49638 5.9657 5.51371 5.79556ZM1.73 5.65333L2.58877 1.77778H4.26381L3.77065 6.09778C3.70263 6.67556 3.26049 7.11111 2.74182 7.11111C2.32519 7.11111 2.0616 6.85333 1.95107 6.69333C1.72149 6.40889 1.64497 6.02667 1.73 5.65333ZM2.54626 14.2222V8.86222C2.61428 8.87111 2.6738 8.88889 2.74182 8.88889C3.48156 8.88889 4.15328 8.56889 4.64644 8.04445C5.1566 8.57778 5.83682 8.88889 6.61057 8.88889C7.35031 8.88889 8.01352 8.56889 8.50668 8.06222C9.00834 8.56889 9.68856 8.88889 10.4538 8.88889C11.168 8.88889 11.8483 8.57778 12.3584 8.04445C12.8516 8.56889 13.5233 8.88889 14.263 8.88889C14.3311 8.88889 14.3906 8.87111 14.4586 8.86222V14.2222H2.54626Z" fill="black"/>
</svg>
