<svg width="215" height="232" viewBox="0 0 215 232" fill="none" xmlns="http://www.w3.org/2000/svg">
<path d="M120.357 75.7338L121.277 80.1151L124.979 77.5988L174.084 44.228L142.86 97.4414L140.818 100.922L144.739 101.875L202.098 115.819L144.739 129.762L140.818 130.716L142.86 134.196L174.084 187.409L124.979 154.038L121.277 151.522L120.357 155.903L107.628 216.55L94.8984 155.903L93.9788 151.522L90.2762 154.038L41.1718 187.409L72.3957 134.196L74.4378 130.716L70.5169 129.762L13.1573 115.819L70.5169 101.875L74.4378 100.922L72.3957 97.4414L41.1718 44.228L90.2762 77.5988L93.9788 80.1151L94.8984 75.7338L107.628 15.0869L120.357 75.7338Z" fill="#3060DF" stroke="black" stroke-width="5"/>
</svg>
